<svg width="430" height="430" viewBox="0 0 430 430" fill="none" xmlns="http://www.w3.org/2000/svg">
<rect width="430" height="430" rx="21" fill="white"/>
<path d="M408 215.5C408 319.053 321.815 403 215.5 403C109.185 403 23 319.053 23 215.5C23 111.947 109.185 28 215.5 28C321.815 28 408 111.947 408 215.5Z" fill="#1F2631"/>
<path d="M194.901 319.195L225.025 233.572L237.158 231.549L250.237 309.965L300.838 301.526L266.191 93.7952L181.264 107.96C164.89 110.691 151.459 115.871 140.972 123.501C130.287 131.163 122.923 140.502 118.88 151.517C114.804 162.335 113.786 173.859 115.826 186.09C118.129 199.9 124.131 211.571 133.832 221.105C143.335 230.672 156.06 236.457 172.007 238.461L137.79 328.72L194.901 319.195ZM231.186 195.743L199.819 200.975C190.547 202.521 183.264 201.404 177.97 197.624C172.479 193.876 169.042 187.859 167.66 179.574C166.344 171.683 167.675 165.074 171.653 159.747C175.433 154.453 181.96 151.033 191.231 149.486L222.598 144.254L231.186 195.743Z" fill="white"/>
</svg>
