<svg width="1327" height="446" viewBox="0 0 1327 446" fill="none" xmlns="http://www.w3.org/2000/svg">
<path d="M579.401 218.352C579.401 219.888 579.305 221.488 579.113 223.152H541.961C542.217 226.48 543.273 229.04 545.129 230.832C547.049 232.56 549.385 233.424 552.137 233.424C556.233 233.424 559.081 231.696 560.681 228.24H578.153C577.257 231.76 575.625 234.928 573.257 237.744C570.953 240.56 568.041 242.768 564.521 244.368C561.001 245.968 557.065 246.768 552.713 246.768C547.465 246.768 542.793 245.648 538.697 243.408C534.601 241.168 531.401 237.968 529.097 233.808C526.793 229.648 525.641 224.784 525.641 219.216C525.641 213.648 526.761 208.784 529.001 204.624C531.305 200.464 534.505 197.264 538.601 195.024C542.697 192.784 547.401 191.664 552.713 191.664C557.897 191.664 562.505 192.752 566.537 194.928C570.569 197.104 573.705 200.208 575.945 204.24C578.249 208.272 579.401 212.976 579.401 218.352ZM562.601 214.032C562.601 211.216 561.641 208.976 559.721 207.312C557.801 205.648 555.401 204.816 552.521 204.816C549.769 204.816 547.433 205.616 545.513 207.216C543.657 208.816 542.505 211.088 542.057 214.032H562.601ZM612.157 230.64L623.773 192.432H641.245L622.237 246H601.981L582.973 192.432H600.541L612.157 230.64ZM698.651 218.352C698.651 219.888 698.555 221.488 698.363 223.152H661.211C661.467 226.48 662.523 229.04 664.379 230.832C666.299 232.56 668.635 233.424 671.387 233.424C675.483 233.424 678.331 231.696 679.931 228.24H697.403C696.507 231.76 694.875 234.928 692.507 237.744C690.203 240.56 687.291 242.768 683.771 244.368C680.251 245.968 676.315 246.768 671.963 246.768C666.715 246.768 662.043 245.648 657.947 243.408C653.851 241.168 650.651 237.968 648.347 233.808C646.043 229.648 644.891 224.784 644.891 219.216C644.891 213.648 646.011 208.784 648.251 204.624C650.555 200.464 653.755 197.264 657.851 195.024C661.947 192.784 666.651 191.664 671.963 191.664C677.147 191.664 681.755 192.752 685.787 194.928C689.819 197.104 692.955 200.208 695.195 204.24C697.499 208.272 698.651 212.976 698.651 218.352ZM681.851 214.032C681.851 211.216 680.891 208.976 678.971 207.312C677.051 205.648 674.651 204.816 671.771 204.816C669.019 204.816 666.683 205.616 664.763 207.216C662.907 208.816 661.755 211.088 661.307 214.032H681.851ZM739.951 191.856C746.223 191.856 751.215 193.904 754.927 198C758.703 202.032 760.591 207.6 760.591 214.704V246H744.271V216.912C744.271 213.328 743.343 210.544 741.487 208.56C739.631 206.576 737.135 205.584 733.999 205.584C730.863 205.584 728.367 206.576 726.511 208.56C724.655 210.544 723.727 213.328 723.727 216.912V246H707.311V192.432H723.727V199.536C725.391 197.168 727.631 195.312 730.447 193.968C733.263 192.56 736.431 191.856 739.951 191.856ZM801.855 232.08V246H793.503C787.551 246 782.911 244.56 779.583 241.68C776.255 238.736 774.591 233.968 774.591 227.376V206.064H768.063V192.432H774.591V179.376H791.007V192.432H801.759V206.064H791.007V227.568C791.007 229.168 791.391 230.32 792.159 231.024C792.927 231.728 794.207 232.08 795.999 232.08H801.855Z" fill="white"/>
<path d="M318 149C318 137.402 327.402 128 339 128H488C499.598 128 509 137.402 509 149V297C509 308.598 499.598 318 488 318H339C327.402 318 318 308.598 318 297V149Z" fill="white"/>
<path d="M498 222.5C498 268.063 460.168 305 413.5 305C366.832 305 329 268.063 329 222.5C329 176.937 366.832 140 413.5 140C460.168 140 498 176.937 498 222.5Z" fill="#2B2B35"/>
<path d="M404.912 275.051L419.372 233.952L425.195 232.981L431.473 270.621L455.762 266.57L439.131 166.859L398.366 173.658C390.507 174.969 384.06 177.455 379.026 181.117C373.897 184.795 370.362 189.278 368.422 194.565C366.465 199.758 365.977 205.29 366.956 211.161C368.062 217.789 370.942 223.391 375.599 227.968C380.16 232.56 386.268 235.337 393.923 236.299L377.499 279.623L404.912 275.051ZM422.329 215.794L407.273 218.305C402.822 219.047 399.326 218.511 396.785 216.697C394.149 214.898 392.5 212.01 391.836 208.033C391.205 204.245 391.843 201.073 393.753 198.516C395.567 195.975 398.7 194.333 403.151 193.591L418.207 191.079L422.329 215.794Z" fill="white"/>
</svg>
